<mxfile host="app.diagrams.net" modified="2021-08-27T08:51:06.158Z" agent="5.0 (Windows NT 10.0; Win64; x64) AppleWebKit/537.36 (KHTML, like Gecko) Chrome/92.0.4515.159 Safari/537.36" etag="fxRjHs1hEEK1qOcxVTkU" version="14.9.2" type="github">
  <diagram id="pY6kfQxgsOqQZHq6hLbD" name="Page-1">
    <mxGraphModel dx="1422" dy="794" grid="1" gridSize="10" guides="1" tooltips="1" connect="1" arrows="1" fold="1" page="1" pageScale="1" pageWidth="827" pageHeight="1169" math="0" shadow="0">
      <root>
        <mxCell id="0" />
        <mxCell id="1" parent="0" />
        <mxCell id="wkenPzNKdh35Ep3lrGyt-31" value="" style="edgeStyle=orthogonalEdgeStyle;rounded=0;orthogonalLoop=1;jettySize=auto;html=1;" edge="1" parent="1" source="wkenPzNKdh35Ep3lrGyt-19" target="wkenPzNKdh35Ep3lrGyt-30">
          <mxGeometry relative="1" as="geometry" />
        </mxCell>
        <mxCell id="wkenPzNKdh35Ep3lrGyt-19" value="传入code和snapid" style="rounded=1;whiteSpace=wrap;html=1;" vertex="1" parent="1">
          <mxGeometry x="220" y="60" width="120" height="60" as="geometry" />
        </mxCell>
        <mxCell id="wkenPzNKdh35Ep3lrGyt-23" style="edgeStyle=orthogonalEdgeStyle;rounded=0;orthogonalLoop=1;jettySize=auto;html=1;" edge="1" parent="1" source="wkenPzNKdh35Ep3lrGyt-20" target="wkenPzNKdh35Ep3lrGyt-22">
          <mxGeometry relative="1" as="geometry" />
        </mxCell>
        <mxCell id="wkenPzNKdh35Ep3lrGyt-24" style="edgeStyle=orthogonalEdgeStyle;rounded=0;orthogonalLoop=1;jettySize=auto;html=1;exitX=0.5;exitY=1;exitDx=0;exitDy=0;" edge="1" parent="1" source="wkenPzNKdh35Ep3lrGyt-20" target="wkenPzNKdh35Ep3lrGyt-21">
          <mxGeometry relative="1" as="geometry" />
        </mxCell>
        <mxCell id="wkenPzNKdh35Ep3lrGyt-20" value="通过code和snapid.&lt;br&gt;构建cache Key，从redis读取数据" style="rhombus;whiteSpace=wrap;html=1;" vertex="1" parent="1">
          <mxGeometry x="205" y="260" width="150" height="80" as="geometry" />
        </mxCell>
        <mxCell id="wkenPzNKdh35Ep3lrGyt-34" value="" style="edgeStyle=orthogonalEdgeStyle;rounded=0;orthogonalLoop=1;jettySize=auto;html=1;" edge="1" parent="1" source="wkenPzNKdh35Ep3lrGyt-21" target="wkenPzNKdh35Ep3lrGyt-33">
          <mxGeometry relative="1" as="geometry" />
        </mxCell>
        <mxCell id="wkenPzNKdh35Ep3lrGyt-21" value="创建vm并存入数据库，并绑定vmid与code，snpaid绑定关系。且存入redis中。" style="rounded=1;whiteSpace=wrap;html=1;" vertex="1" parent="1">
          <mxGeometry x="220" y="450" width="120" height="60" as="geometry" />
        </mxCell>
        <mxCell id="wkenPzNKdh35Ep3lrGyt-28" style="edgeStyle=orthogonalEdgeStyle;rounded=0;orthogonalLoop=1;jettySize=auto;html=1;exitX=0.5;exitY=1;exitDx=0;exitDy=0;entryX=1;entryY=0.5;entryDx=0;entryDy=0;" edge="1" parent="1" source="wkenPzNKdh35Ep3lrGyt-22" target="wkenPzNKdh35Ep3lrGyt-21">
          <mxGeometry relative="1" as="geometry" />
        </mxCell>
        <mxCell id="wkenPzNKdh35Ep3lrGyt-22" value="过滤不在缓冲中的snapid-code" style="rounded=1;whiteSpace=wrap;html=1;" vertex="1" parent="1">
          <mxGeometry x="500" y="270" width="120" height="60" as="geometry" />
        </mxCell>
        <mxCell id="wkenPzNKdh35Ep3lrGyt-26" value="redis没有" style="text;html=1;strokeColor=none;fillColor=none;align=center;verticalAlign=middle;whiteSpace=wrap;rounded=0;" vertex="1" parent="1">
          <mxGeometry x="210" y="390" width="60" height="20" as="geometry" />
        </mxCell>
        <mxCell id="wkenPzNKdh35Ep3lrGyt-29" value="redis有" style="text;html=1;strokeColor=none;fillColor=none;align=center;verticalAlign=middle;whiteSpace=wrap;rounded=0;" vertex="1" parent="1">
          <mxGeometry x="400" y="310" width="60" height="20" as="geometry" />
        </mxCell>
        <mxCell id="wkenPzNKdh35Ep3lrGyt-32" value="" style="edgeStyle=orthogonalEdgeStyle;rounded=0;orthogonalLoop=1;jettySize=auto;html=1;" edge="1" parent="1" source="wkenPzNKdh35Ep3lrGyt-30" target="wkenPzNKdh35Ep3lrGyt-20">
          <mxGeometry relative="1" as="geometry" />
        </mxCell>
        <mxCell id="wkenPzNKdh35Ep3lrGyt-30" value="通过code和snapid.&lt;br&gt;构建cache Key分段加锁，防止并发访问，同时增加并发能力" style="rounded=0;whiteSpace=wrap;html=1;" vertex="1" parent="1">
          <mxGeometry x="220" y="160" width="120" height="60" as="geometry" />
        </mxCell>
        <mxCell id="wkenPzNKdh35Ep3lrGyt-33" value="释放锁，返回数据" style="rounded=1;whiteSpace=wrap;html=1;" vertex="1" parent="1">
          <mxGeometry x="220" y="600" width="120" height="60" as="geometry" />
        </mxCell>
      </root>
    </mxGraphModel>
  </diagram>
</mxfile>
